# xmcd
#
# Track frame offsets:
#	150
#	20778
#	38778
#	61352
#	84128
#	99552
#	122793
#
# Disc length: 1862 seconds
# Revision: 0
# Processed by: cddbd v1.5.2PL0 Copyright (c) Steve Scherf et al.
# Submitted via: dBpowerAMP V12.0
#
DISCID=53074407
DTITLE=Muddy Road - Up The Line
DYEAR=2012
DGENRE=Blues
TTITLE0=Up The Line
TTITLE1=Eyesight To The Blind
TTITLE2=Little By Little
TTITLE3=Give Me One Reason
TTITLE4=Too Late
TTITLE5=Help Me
TTITLE6=Ain't No Sunshine
EXTD=
EXTT0=
EXTT1=
EXTT2=
EXTT3=
EXTT4=
EXTT5=
EXTT6=
PLAYORDER=
